<mxfile host="app.diagrams.net" modified="2024-01-10T15:36:04.408Z" agent="Mozilla/5.0 (Windows NT 10.0; Win64; x64) AppleWebKit/537.36 (KHTML, like Gecko) Chrome/120.0.0.0 Safari/537.36" etag="qRjhVDWFUi9-VkUVQBXu" version="22.1.18" type="github">
  <diagram name="Page-1" id="b5b7bab2-c9e2-2cf4-8b2a-24fd1a2a6d21">
    <mxGraphModel dx="1257" dy="622" grid="1" gridSize="10" guides="1" tooltips="1" connect="1" arrows="1" fold="1" page="1" pageScale="1" pageWidth="827" pageHeight="1169" background="none" math="0" shadow="0">
      <root>
        <mxCell id="0" />
        <mxCell id="1" parent="0" />
        <mxCell id="bGr7-gYaH_otsYuwGGPP-29" value="" style="endArrow=none;dashed=1;html=1;rounded=0;entryX=0.5;entryY=1;entryDx=0;entryDy=0;exitX=0.5;exitY=0;exitDx=0;exitDy=0;fillColor=#eeeeee;strokeColor=#36393d;" edge="1" parent="1" source="bGr7-gYaH_otsYuwGGPP-18" target="bGr7-gYaH_otsYuwGGPP-20">
          <mxGeometry width="50" height="50" relative="1" as="geometry">
            <mxPoint x="415" y="405" as="sourcePoint" />
            <mxPoint x="415" y="235" as="targetPoint" />
          </mxGeometry>
        </mxCell>
        <mxCell id="bGr7-gYaH_otsYuwGGPP-23" value="" style="rounded=1;whiteSpace=wrap;html=1;fillColor=#eeeeee;strokeColor=#36393d;" vertex="1" parent="1">
          <mxGeometry x="215" y="430" width="120" height="40" as="geometry" />
        </mxCell>
        <mxCell id="bGr7-gYaH_otsYuwGGPP-22" value="" style="rounded=1;whiteSpace=wrap;html=1;fillColor=#eeeeee;strokeColor=#36393d;" vertex="1" parent="1">
          <mxGeometry x="215" y="140" width="120" height="40" as="geometry" />
        </mxCell>
        <mxCell id="bGr7-gYaH_otsYuwGGPP-1" value="Пользователь" style="shape=umlActor;verticalLabelPosition=bottom;verticalAlign=top;html=1;outlineConnect=0;" vertex="1" parent="1">
          <mxGeometry x="90" y="120" width="30" height="60" as="geometry" />
        </mxCell>
        <mxCell id="bGr7-gYaH_otsYuwGGPP-3" value="Пользователь" style="shape=umlActor;verticalLabelPosition=bottom;verticalAlign=top;html=1;outlineConnect=0;" vertex="1" parent="1">
          <mxGeometry x="90" y="390" width="30" height="60" as="geometry" />
        </mxCell>
        <mxCell id="bGr7-gYaH_otsYuwGGPP-6" value="" style="endArrow=none;dashed=1;html=1;rounded=0;exitX=0.5;exitY=0;exitDx=0;exitDy=0;exitPerimeter=0;" edge="1" parent="1" source="bGr7-gYaH_otsYuwGGPP-3">
          <mxGeometry width="50" height="50" relative="1" as="geometry">
            <mxPoint x="220" y="370" as="sourcePoint" />
            <mxPoint x="105" y="200" as="targetPoint" />
          </mxGeometry>
        </mxCell>
        <mxCell id="bGr7-gYaH_otsYuwGGPP-8" value="" style="endArrow=classic;html=1;rounded=0;entryX=0;entryY=0;entryDx=0;entryDy=0;" edge="1" parent="1" target="bGr7-gYaH_otsYuwGGPP-7">
          <mxGeometry width="50" height="50" relative="1" as="geometry">
            <mxPoint x="110" y="250" as="sourcePoint" />
            <mxPoint x="270" y="320" as="targetPoint" />
          </mxGeometry>
        </mxCell>
        <mxCell id="bGr7-gYaH_otsYuwGGPP-9" value="Запрос обнаружение лиц&amp;nbsp;" style="text;html=1;strokeColor=none;fillColor=none;align=center;verticalAlign=middle;whiteSpace=wrap;rounded=0;" vertex="1" parent="1">
          <mxGeometry x="110" y="230" width="160" height="20" as="geometry" />
        </mxCell>
        <mxCell id="bGr7-gYaH_otsYuwGGPP-11" value="" style="endArrow=none;dashed=1;html=1;rounded=0;" edge="1" parent="1">
          <mxGeometry width="50" height="50" relative="1" as="geometry">
            <mxPoint x="274.58" y="430" as="sourcePoint" />
            <mxPoint x="274.58" y="180" as="targetPoint" />
          </mxGeometry>
        </mxCell>
        <mxCell id="bGr7-gYaH_otsYuwGGPP-40" style="edgeStyle=orthogonalEdgeStyle;rounded=0;orthogonalLoop=1;jettySize=auto;html=1;entryX=1;entryY=0.615;entryDx=0;entryDy=0;entryPerimeter=0;" edge="1" parent="1" source="bGr7-gYaH_otsYuwGGPP-7" target="bGr7-gYaH_otsYuwGGPP-7">
          <mxGeometry relative="1" as="geometry">
            <mxPoint x="290" y="330" as="targetPoint" />
            <Array as="points">
              <mxPoint x="330" y="315" />
              <mxPoint x="330" y="330" />
            </Array>
          </mxGeometry>
        </mxCell>
        <mxCell id="bGr7-gYaH_otsYuwGGPP-7" value="" style="rounded=0;whiteSpace=wrap;html=1;" vertex="1" parent="1">
          <mxGeometry x="270" y="250" width="10" height="130" as="geometry" />
        </mxCell>
        <mxCell id="bGr7-gYaH_otsYuwGGPP-13" value="Программа &quot;Свой-чужой&quot;" style="text;html=1;strokeColor=none;fillColor=none;align=center;verticalAlign=middle;whiteSpace=wrap;rounded=0;" vertex="1" parent="1">
          <mxGeometry x="210" y="435" width="130" height="30" as="geometry" />
        </mxCell>
        <mxCell id="bGr7-gYaH_otsYuwGGPP-15" value="Программа &quot;Свой-чужой&quot;" style="text;html=1;strokeColor=none;fillColor=none;align=center;verticalAlign=middle;whiteSpace=wrap;rounded=0;" vertex="1" parent="1">
          <mxGeometry x="210" y="145" width="130" height="30" as="geometry" />
        </mxCell>
        <mxCell id="bGr7-gYaH_otsYuwGGPP-16" value="" style="endArrow=classic;html=1;rounded=0;exitX=1.083;exitY=0.147;exitDx=0;exitDy=0;exitPerimeter=0;" edge="1" parent="1" source="bGr7-gYaH_otsYuwGGPP-7">
          <mxGeometry width="50" height="50" relative="1" as="geometry">
            <mxPoint x="390" y="360" as="sourcePoint" />
            <mxPoint x="410" y="270" as="targetPoint" />
          </mxGeometry>
        </mxCell>
        <mxCell id="bGr7-gYaH_otsYuwGGPP-18" value="База фотографий" style="text;html=1;strokeColor=none;fillColor=none;align=center;verticalAlign=middle;whiteSpace=wrap;rounded=0;" vertex="1" parent="1">
          <mxGeometry x="354" y="410" width="120" height="30" as="geometry" />
        </mxCell>
        <mxCell id="bGr7-gYaH_otsYuwGGPP-20" value="База фотографий" style="text;html=1;strokeColor=none;fillColor=none;align=center;verticalAlign=middle;whiteSpace=wrap;rounded=0;" vertex="1" parent="1">
          <mxGeometry x="354" y="200" width="120" height="30" as="geometry" />
        </mxCell>
        <mxCell id="bGr7-gYaH_otsYuwGGPP-25" value="Загрузка фотографии" style="text;html=1;strokeColor=none;fillColor=none;align=center;verticalAlign=middle;whiteSpace=wrap;rounded=0;" vertex="1" parent="1">
          <mxGeometry x="310" y="240" width="60" height="30" as="geometry" />
        </mxCell>
        <mxCell id="bGr7-gYaH_otsYuwGGPP-26" value="" style="endArrow=classic;html=1;rounded=0;entryX=0.917;entryY=0.333;entryDx=0;entryDy=0;entryPerimeter=0;dashed=1;" edge="1" parent="1" target="bGr7-gYaH_otsYuwGGPP-7">
          <mxGeometry width="50" height="50" relative="1" as="geometry">
            <mxPoint x="410" y="293" as="sourcePoint" />
            <mxPoint x="280" y="290" as="targetPoint" />
          </mxGeometry>
        </mxCell>
        <mxCell id="bGr7-gYaH_otsYuwGGPP-27" value="Фотография" style="text;html=1;strokeColor=none;fillColor=none;align=center;verticalAlign=middle;whiteSpace=wrap;rounded=0;" vertex="1" parent="1">
          <mxGeometry x="302" y="290" width="76" height="30" as="geometry" />
        </mxCell>
        <mxCell id="bGr7-gYaH_otsYuwGGPP-28" value="" style="rounded=0;whiteSpace=wrap;html=1;rotation=90;" vertex="1" parent="1">
          <mxGeometry x="395" y="275" width="40" height="10" as="geometry" />
        </mxCell>
        <mxCell id="bGr7-gYaH_otsYuwGGPP-38" value="Обработка фотографии" style="text;html=1;strokeColor=none;fillColor=none;align=center;verticalAlign=middle;whiteSpace=wrap;rounded=0;" vertex="1" parent="1">
          <mxGeometry x="280" y="330" width="105" height="30" as="geometry" />
        </mxCell>
        <mxCell id="bGr7-gYaH_otsYuwGGPP-41" value="" style="shape=cylinder3;whiteSpace=wrap;html=1;boundedLbl=1;backgroundOutline=1;size=15;fillColor=#eeeeee;strokeColor=#36393d;" vertex="1" parent="1">
          <mxGeometry x="396.5" y="145" width="35" height="50" as="geometry" />
        </mxCell>
        <mxCell id="bGr7-gYaH_otsYuwGGPP-42" value="" style="shape=cylinder3;whiteSpace=wrap;html=1;boundedLbl=1;backgroundOutline=1;size=15;fillColor=#eeeeee;strokeColor=#36393d;" vertex="1" parent="1">
          <mxGeometry x="396" y="435" width="36" height="50" as="geometry" />
        </mxCell>
        <mxCell id="bGr7-gYaH_otsYuwGGPP-44" value="" style="endArrow=classic;html=1;rounded=0;" edge="1" parent="1">
          <mxGeometry width="50" height="50" relative="1" as="geometry">
            <mxPoint x="510" y="375" as="sourcePoint" />
            <mxPoint x="280" y="375" as="targetPoint" />
          </mxGeometry>
        </mxCell>
        <mxCell id="bGr7-gYaH_otsYuwGGPP-45" value="" style="endArrow=none;dashed=1;html=1;rounded=0;" edge="1" parent="1">
          <mxGeometry width="50" height="50" relative="1" as="geometry">
            <mxPoint x="510" y="400" as="sourcePoint" />
            <mxPoint x="510" y="230" as="targetPoint" />
          </mxGeometry>
        </mxCell>
        <mxCell id="bGr7-gYaH_otsYuwGGPP-46" value="" style="shape=cylinder3;whiteSpace=wrap;html=1;boundedLbl=1;backgroundOutline=1;size=15;fillColor=#eeeeee;strokeColor=#36393d;" vertex="1" parent="1">
          <mxGeometry x="490" y="150" width="35" height="50" as="geometry" />
        </mxCell>
        <mxCell id="bGr7-gYaH_otsYuwGGPP-47" value="" style="shape=cylinder3;whiteSpace=wrap;html=1;boundedLbl=1;backgroundOutline=1;size=15;fillColor=#eeeeee;strokeColor=#36393d;" vertex="1" parent="1">
          <mxGeometry x="490" y="435" width="35" height="50" as="geometry" />
        </mxCell>
        <mxCell id="bGr7-gYaH_otsYuwGGPP-49" value="Голосовой движок" style="text;html=1;strokeColor=none;fillColor=none;align=center;verticalAlign=middle;whiteSpace=wrap;rounded=0;" vertex="1" parent="1">
          <mxGeometry x="480" y="405" width="60" height="30" as="geometry" />
        </mxCell>
        <mxCell id="bGr7-gYaH_otsYuwGGPP-51" value="Голосовой движок" style="text;html=1;strokeColor=none;fillColor=none;align=center;verticalAlign=middle;whiteSpace=wrap;rounded=0;" vertex="1" parent="1">
          <mxGeometry x="480" y="200" width="60" height="30" as="geometry" />
        </mxCell>
        <mxCell id="bGr7-gYaH_otsYuwGGPP-52" value="Воспроизведение" style="text;html=1;strokeColor=none;fillColor=none;align=center;verticalAlign=middle;whiteSpace=wrap;rounded=0;" vertex="1" parent="1">
          <mxGeometry x="285" y="375" width="110" height="30" as="geometry" />
        </mxCell>
      </root>
    </mxGraphModel>
  </diagram>
</mxfile>
